<svg xmlns="http://www.w3.org/2000/svg" viewBox="0 0 142.9 142.9"><defs><style>.cls-1{fill:#fef5a3;}.cls-2{fill:#f05881;}.cls-3{fill:#231f20;}.cls-4{fill:none;stroke:#231f20;stroke-miterlimit:10;stroke-width:4px;}</style></defs><g id="Layer_3" data-name="Layer 3"><circle class="cls-1" cx="71.45" cy="71.45" r="69.45"/><path class="cls-2" d="M52.07,116.59s2.19-29.48-6.6-29.76-11.66-9.08-11.66-9.08c-.6.67-4.78,2.56-6-7.08-.67-5.39-.5-8.07,1.42-10.71l-1.13.1c-6.86,1-11.56-7-11.28-10.37s11.06-6.24,14.74-9.35,10.21-15.6,15.49-17.86S56,25.88,56,25.88c9.16-4.92,17.73-2.32,20.53-1.42,2.94-1,6.35-2.73,10.37-.72A47.56,47.56,0,0,1,96.78,30s4.26-4,7.66,0,10.64,17.31,10.64,17.31,5.52,3.67,5.52,7.07-2.55,10.49-3.69,14.17-.56,9.36-4.53,9.93c-2,.28-4.51-2.34-6.44-5.61-.23,5.48,7.81,23.9,11.08,34.78a42.57,42.57,0,0,1,8.48,8.65A69.45,69.45,0,1,0,2.55,72c0,27,16.45,51.43,39,62.91C42.25,130.59,52.07,116.59,52.07,116.59Z" transform="translate(-0.97 -0.97)"/></g><g id="Layer_2" data-name="Layer 2"><path class="cls-3" d="M47.42,64.34C47.48,70,41.86,75.12,38,75.9c-10.8-5.38-10-12.59-9.44-15.43S33.82,56.2,39,57.27,48,61.5,47.42,64.34Z" transform="translate(-0.97 -0.97)"/><path class="cls-3" d="M77,24.49a23,23,0,0,0-5.2-.62,27.23,27.23,0,0,0-5.12.44,28.35,28.35,0,0,0-4.89,1.36c-.8.26-1.56.66-2.33,1s-1.5.79-2.25,1.17l-.07,0-.13.06a25.38,25.38,0,0,0-2.46,1.19,19,19,0,0,0-2.23,1.46,14.59,14.59,0,0,0-1.93,1.74,10.56,10.56,0,0,0-.8,1,5.5,5.5,0,0,0-.34.5c-.09.14-.22.37-.24.4l-1.74,1.08c.07,0-.17,0-.29,0a2.89,2.89,0,0,0-.49.07,4.94,4.94,0,0,0-1,.35,7.24,7.24,0,0,0-2,1.49,15.38,15.38,0,0,0-2.84,4.64,27.7,27.7,0,0,0-1.51,5.49A50,50,0,0,0,38.55,53v.28l-.24.21a58.43,58.43,0,0,0-6.59,6.34,8.81,8.81,0,0,0-1.89,3.52,12.61,12.61,0,0,0-.17,4.06c.31,2.88.65,6.12,2,7.8a2.07,2.07,0,0,0,2.13.89,4,4,0,0,0,1.36-.53,5.08,5.08,0,0,0,1.15-1l1.77-2.1,1.68,2.21a11.65,11.65,0,0,0,2.53,2.47,15.48,15.48,0,0,0,3.35,1.77,23,23,0,0,0,7.8,1.57,20.33,20.33,0,0,0,7.94-1.21,14.85,14.85,0,0,1,4.44-1.21,3.64,3.64,0,0,1,2.44.61A2.1,2.1,0,0,1,69,79.74a2.88,2.88,0,0,1,.12,1.2l-.4,0a1.82,1.82,0,0,0-1-1.46,2.71,2.71,0,0,0-1.74,0,15.57,15.57,0,0,0-3.66,1.77,20.16,20.16,0,0,1-8.83,2.56,24.05,24.05,0,0,1-9.23-1.07,18.19,18.19,0,0,1-4.38-2.06,14.27,14.27,0,0,1-3.68-3.52l3.45.11a8.26,8.26,0,0,1-5.33,3,6.1,6.1,0,0,1-3.39-.53c-.26-.14-.52-.28-.77-.43s-.45-.35-.66-.53a6.8,6.8,0,0,1-1.09-1.2,11.84,11.84,0,0,1-1.85-5.16c-.06-.42-.13-.85-.17-1.26L26.3,70c-.06-.8-.1-1.61-.11-2.43a13.72,13.72,0,0,1,.75-5.13,11.34,11.34,0,0,1,3-4.25,38,38,0,0,1,3.74-3l3.74-2.78-.26.49c.14-1,.26-1.94.36-2.92s.31-1.93.44-2.9a53.79,53.79,0,0,1,1.23-5.79,19.8,19.8,0,0,1,2.47-5.62A9.66,9.66,0,0,1,44,33.25a6.84,6.84,0,0,1,1.61-.84,6.68,6.68,0,0,1,.93-.26,4.37,4.37,0,0,1,1.16-.07L46,33.15a7,7,0,0,1,.38-.94c.13-.26.27-.52.42-.77a11.6,11.6,0,0,1,1-1.4,14.84,14.84,0,0,1,2.37-2.32A19,19,0,0,1,52.84,26c.47-.25,1-.46,1.44-.7s1-.39,1.47-.59l-.19.09c.86-.38,1.7-.81,2.58-1.15s1.76-.67,2.69-.89l1.36-.37,1.4-.25a26.34,26.34,0,0,1,2.8-.31,22.62,22.62,0,0,1,5.58.43,16.31,16.31,0,0,1,5.19,1.91Z" transform="translate(-0.97 -0.97)"/><path class="cls-3" d="M34.42,78.1c2.37,3.27,5.2,5.83,8.44,6.79a6.72,6.72,0,0,0,1.23.31,8.84,8.84,0,0,0,1.27.2l.68.11a9.81,9.81,0,0,1,1.08.21c.34.14.67.28,1,.45s.57.41.84.62a7.67,7.67,0,0,1,1.91,3,23.28,23.28,0,0,1,.83,3.09l1.18,6c.4,2,.84,4,1.18,6A46.25,46.25,0,0,1,54.6,111c.08,2,.12,4,0,6.14l0,.68-.5.58c-1,1.17-2,2.36-3.1,3.52l-3.17,3.48c-1,1.17-2.11,2.32-3.11,3.52a14.66,14.66,0,0,0-2.58,3.78h-.4a6.15,6.15,0,0,1,.24-2.57,17.19,17.19,0,0,1,.84-2.38,36.26,36.26,0,0,1,2.29-4.37c.85-1.4,1.77-2.73,2.72-4a48,48,0,0,1,3.07-3.79l-.54,1.27c.17-1.91.34-3.91.48-5.87s.23-3.94.41-5.92c.36-3.93.52-8-.93-11.72a10.87,10.87,0,0,0-1.39-2.48,5.56,5.56,0,0,0-1.79-1.62l-.44-.17a2.5,2.5,0,0,1-.41-.07,1.77,1.77,0,0,1-.4,0l-.82,0a8.18,8.18,0,0,1-1.7-.23,9.85,9.85,0,0,1-1.66-.49,11.86,11.86,0,0,1-5.32-4.08A12.1,12.1,0,0,1,34,78.23Z" transform="translate(-0.97 -0.97)"/><path class="cls-3" d="M56.21,26.4a13.52,13.52,0,0,0-3.47-2.16A5.53,5.53,0,0,0,49.37,24a7.23,7.23,0,0,0-2.9,1.69c-.94.84-1.87,1.83-2.87,2.79a68.35,68.35,0,0,0-5.92,6.2C36.79,35.79,36,37,35.16,38.18a26.57,26.57,0,0,1-2.75,3.64,33.21,33.21,0,0,1-7.5,4.85c-1.25.68-2.48,1.34-3.57,2a12.08,12.08,0,0,0-1.43,1.07c-.41.32-.58.69-.53.54s0-.08,0,0v.13a.93.93,0,0,0,0,.29,5.8,5.8,0,0,0,.11.76A10.73,10.73,0,0,0,20,53.17a14,14,0,0,0,1.88,3.25,9.41,9.41,0,0,0,6.62,3.85l0,.4a7.59,7.59,0,0,1-4.63.22,10.76,10.76,0,0,1-4.28-2.25,13.86,13.86,0,0,1-3.11-3.74,11.28,11.28,0,0,1-1-2.34,6.84,6.84,0,0,1-.32-1.35,3.84,3.84,0,0,1,0-.78V50a3.17,3.17,0,0,1,.07-.55A4.51,4.51,0,0,1,16,47.64a6.58,6.58,0,0,1,1.06-1.1,12.65,12.65,0,0,1,2.1-1.41,40.21,40.21,0,0,1,4.11-1.88c1.35-.55,2.68-1.07,4-1.56a28.55,28.55,0,0,0,3.75-1.59,13.08,13.08,0,0,0,3-2.74,32,32,0,0,0,2.55-3.45c1.57-2.42,2.7-5.15,4.42-7.61a16.37,16.37,0,0,1,3.14-3.38,8.8,8.8,0,0,1,4.75-2,6.91,6.91,0,0,1,4.89,1.53,8.47,8.47,0,0,1,2.71,3.76Z" transform="translate(-0.97 -0.97)"/><path class="cls-3" d="M72.44,26.12a18.85,18.85,0,0,1,6.33-2.87,14.58,14.58,0,0,1,7.25,0,13.13,13.13,0,0,1,1.79.63c.55.24,1.06.46,1.58.71,1,.51,2.07,1,3.08,1.59s2,1.15,3,1.8a25.48,25.48,0,0,1,2.92,2.14l-2.4,0a8.76,8.76,0,0,1,1.7-1.23,8.33,8.33,0,0,1,2-.81,6,6,0,0,1,4.54.54A6.64,6.64,0,0,1,105.9,30c.25.28.41.51.6.75s.36.48.52.73c.66,1,1.24,1.94,1.82,2.92,1.13,2,2.16,4,3.18,6l3.06,6-.15-.18a45.34,45.34,0,0,1,4.87,5.3,11.07,11.07,0,0,1,1.79,3.33,4,4,0,0,1,.14,1c0,.32,0,.64,0,1a18.28,18.28,0,0,1-.2,1.83c-.39,2.39-.94,4.72-1.52,7l-.88,3.43a20.76,20.76,0,0,0-.67,3.26c-.13,1.12-.25,2.31-.48,3.57a8.57,8.57,0,0,1-1.7,4.06A5.17,5.17,0,0,1,114,81.53c-.21.06-.43.13-.64.17a3.65,3.65,0,0,1-.74.09,4.85,4.85,0,0,1-1.51-.19,7,7,0,0,1-2.15-1.13,12.74,12.74,0,0,1-1.57-1.41,25.28,25.28,0,0,1-4.26-6.39,24.92,24.92,0,0,1-1.38-3.59,12.68,12.68,0,0,1-.59-4.21l.06.64a42.59,42.59,0,0,1-.87-8c-.06-2.6,0-5.18.09-7.75s.32-5.13.59-7.68c.06-.64.14-1.28.22-1.92l.12-.94a.71.71,0,0,0,0-.39.55.55,0,0,0-.22-.36,1.53,1.53,0,0,0-.64-.24,6.87,6.87,0,0,0-1.81,0l-.13-.37a5.65,5.65,0,0,1,1.9-.83,2.7,2.7,0,0,1,1.23,0,2.2,2.2,0,0,1,1.23.82,2.61,2.61,0,0,1,.5,1.44v1l.05,1.9c.06,2.54.15,5.07.25,7.59s.24,5,.49,7.51a51.45,51.45,0,0,0,1.09,7.17l.06.27v.37a9.54,9.54,0,0,0,.46,2.75,25.1,25.1,0,0,0,4.46,8.46,6.18,6.18,0,0,0,1.93,1.58,1.6,1.6,0,0,0,.24.06,1.11,1.11,0,0,0,.34,0,1.31,1.31,0,0,0,.66-.38,5.6,5.6,0,0,0,1.05-2.36c.27-1,.45-2.19.72-3.39.13-.6.28-1.21.47-1.84s.42-1.16.64-1.73l1.28-3.3a58.76,58.76,0,0,0,2.21-6.6,16.87,16.87,0,0,0,.34-1.66,7.65,7.65,0,0,0,.08-.81,2.43,2.43,0,0,0,0-.71,8.19,8.19,0,0,0-1.45-2.91,27.47,27.47,0,0,0-4.73-5l-.07-.06-.07-.13-1.75-2.83-1.85-2.78c-1.27-1.83-2.56-3.65-3.89-5.39-.66-.88-1.32-1.75-2-2.55l-.51-.6a6.47,6.47,0,0,0-.49-.52,3.44,3.44,0,0,0-.9-.66,2.62,2.62,0,0,0-1.94-.15,5.6,5.6,0,0,0-1.13.46,7.06,7.06,0,0,0-1,.69l-1.23,1.05-1.18-1a31.3,31.3,0,0,0-2.47-1.94c-.89-.62-1.79-1.24-2.71-1.84S89,27.77,88,27.22l-1.43-.83a11,11,0,0,0-1.35-.63A14.12,14.12,0,0,0,79.06,25a24,24,0,0,0-6.43,1.47Z" transform="translate(-0.97 -0.97)"/><path class="cls-3" d="M126.41,117.75a17,17,0,0,1-2.92-1.88,27.91,27.91,0,0,1-2.41-2.15,12.06,12.06,0,0,1-1.88-2.67,7.37,7.37,0,0,0-2.13-2.52l-.16-.12-.06-.19a52.33,52.33,0,0,0-3.9-8.61c-1.38-2.84-2.58-5.75-3.8-8.67a57.83,57.83,0,0,1-2.74-9.15,36.11,36.11,0,0,1-.73-4.82,17.35,17.35,0,0,1,0-2.5,7.09,7.09,0,0,1,.2-1.28,2.74,2.74,0,0,1,.6-1.22l.34.22a4.76,4.76,0,0,0,.32,2.13c.24.71.51,1.43.8,2.15.58,1.42,1.19,2.85,1.81,4.28,1.21,2.87,2.43,5.75,3.42,8.73s1.93,6,2.7,9.09,1.22,6.27,2.16,9.3l-.22-.31a14.48,14.48,0,0,0,3,1.7,8.23,8.23,0,0,1,2.88,2,13.45,13.45,0,0,1,2,2.85,9.49,9.49,0,0,1,1.07,3.44Z" transform="translate(-0.97 -0.97)"/><path class="cls-3" d="M68.71,55.71a9.08,9.08,0,0,1,2-6.39,7.28,7.28,0,0,1,2.77-2.25,8,8,0,0,1,3.56-.59c.58,0,1.15,0,1.7.11s1.11.13,1.67.19a10.84,10.84,0,0,1,3.3,1.12,7.91,7.91,0,0,1,2.71,2.5A9.85,9.85,0,0,1,87.28,52a10.57,10.57,0,0,1,.57,1.82l.19.9-.86.84a12.19,12.19,0,0,1-1.48,1.23,9.64,9.64,0,0,1-1.62.94,9.82,9.82,0,0,1-3.76.93,7.19,7.19,0,0,1-3.9-1,5.66,5.66,0,0,1-2.33-2.89l.3-.26a8.81,8.81,0,0,0,2.92.8A6.83,6.83,0,0,0,79.8,55a16.72,16.72,0,0,0,2.39-1.07c.77-.41,1.68-.9,2.35-1.33l-.67,1.73a6.13,6.13,0,0,0-.13-1.18c-.07-.43-.2-.83-.3-1.25a7.44,7.44,0,0,0-1-2.4A3.72,3.72,0,0,0,80.21,48a3.92,3.92,0,0,0-1.41,0,4.38,4.38,0,0,0-1.36.42,8.07,8.07,0,0,0-1.17.75c-.34.33-.69.56-1,.87-.65.56-1.31,1.08-2,1.68-1.34,1.19-2.61,2.63-4.2,4.18Z" transform="translate(-0.97 -0.97)"/><path class="cls-3" d="M41.73,44.65a7,7,0,0,1,.8-4.27,5.83,5.83,0,0,1,1.53-1.89,3.85,3.85,0,0,1,2.88-.9,6.53,6.53,0,0,1,.79.21,2.78,2.78,0,0,1,.55.29,9.2,9.2,0,0,1,.95.69,10.16,10.16,0,0,1,1.6,1.68,5.61,5.61,0,0,1,1,4.49,3.85,3.85,0,0,1-.5,1.3,5.64,5.64,0,0,1-.68,1,10.94,10.94,0,0,1-1.51,1.53A16.5,16.5,0,0,1,38,53.12l-.18-.36a23.81,23.81,0,0,1,5.88-5.33,36.29,36.29,0,0,1,3.29-1.78c.53-.28,1.06-.59,1.56-.84l.73-.36.27-.13a.57.57,0,0,0,.27-.2,2.52,2.52,0,0,0,.68-1.42,1.64,1.64,0,0,0-.58-1.38,2.57,2.57,0,0,0-1.56-.53,8.42,8.42,0,0,0-.87,0c-.13,0-.33,0-.39,0a.42.42,0,0,1-.17.08,3.52,3.52,0,0,1-.7.43,8.38,8.38,0,0,0-1.16.9c-.85.74-1.74,1.65-2.91,2.54Z" transform="translate(-0.97 -0.97)"/><circle class="cls-3" cx="79.12" cy="50.93" r="4.4"/><circle class="cls-3" cx="47.5" cy="42.65" r="3.42"/><circle class="cls-4" cx="71.45" cy="71.45" r="69.45"/></g></svg>